<mxfile host="drawio-plugin" modified="2023-05-12T23:59:46.661Z" agent="5.0 (Macintosh; Intel Mac OS X 10_15_7) AppleWebKit/537.36 (KHTML, like Gecko) Chrome/104.0.5112.102 Safari/537.36" etag="rj2GwmQXLNyNOvCVGeRa" version="20.5.3" type="embed"><diagram id="R2lEEEUBdFMjLlhIrx00" name="Page-1"><mxGraphModel dx="850" dy="377" grid="1" gridSize="10" guides="1" tooltips="1" connect="1" arrows="1" fold="1" page="1" pageScale="1" pageWidth="850" pageHeight="1100" math="0" shadow="0" extFonts="Permanent Marker^https://fonts.googleapis.com/css?family=Permanent+Marker"><root><mxCell id="0"/><mxCell id="1" parent="0"/><mxCell id="mFvnAFIRrcvvcW3mixJN-1" value="Client" style="swimlane;childLayout=stackLayout;horizontal=1;startSize=50;horizontalStack=0;rounded=1;fontSize=14;fontStyle=0;strokeWidth=2;resizeParent=0;resizeLast=1;shadow=0;dashed=0;align=center;arcSize=4;whiteSpace=wrap;html=1;" parent="1" vertex="1"><mxGeometry x="50" y="160" width="160" height="150" as="geometry"><mxRectangle x="50" y="170" width="80" height="50" as="alternateBounds"/></mxGeometry></mxCell><mxCell id="mFvnAFIRrcvvcW3mixJN-2" value="&lt;b&gt;+account_id&lt;/b&gt;&lt;br&gt;+name&lt;br&gt;+email&lt;br&gt;+notes" style="align=left;strokeColor=none;fillColor=none;spacingLeft=4;fontSize=12;verticalAlign=top;resizable=0;rotatable=0;part=1;html=1;" parent="mFvnAFIRrcvvcW3mixJN-1" vertex="1"><mxGeometry y="50" width="160" height="100" as="geometry"/></mxCell><mxCell id="mFvnAFIRrcvvcW3mixJN-3" value="Project" style="swimlane;childLayout=stackLayout;horizontal=1;startSize=50;horizontalStack=0;rounded=1;fontSize=14;fontStyle=0;strokeWidth=2;resizeParent=0;resizeLast=1;shadow=0;dashed=0;align=center;arcSize=4;whiteSpace=wrap;html=1;" parent="1" vertex="1"><mxGeometry x="310" y="170" width="160" height="120" as="geometry"/></mxCell><mxCell id="mFvnAFIRrcvvcW3mixJN-4" value="&lt;b&gt;+account_id&lt;/b&gt;&lt;br&gt;+name&lt;br&gt;+description" style="align=left;strokeColor=none;fillColor=none;spacingLeft=4;fontSize=12;verticalAlign=top;resizable=0;rotatable=0;part=1;html=1;" parent="mFvnAFIRrcvvcW3mixJN-3" vertex="1"><mxGeometry y="50" width="160" height="70" as="geometry"/></mxCell><mxCell id="mFvnAFIRrcvvcW3mixJN-5" value="Task" style="swimlane;childLayout=stackLayout;horizontal=1;startSize=50;horizontalStack=0;rounded=1;fontSize=14;fontStyle=0;strokeWidth=2;resizeParent=0;resizeLast=1;shadow=0;dashed=0;align=center;arcSize=4;whiteSpace=wrap;html=1;" parent="1" vertex="1"><mxGeometry x="310" y="380" width="160" height="120" as="geometry"/></mxCell><mxCell id="mFvnAFIRrcvvcW3mixJN-6" value="&lt;b&gt;+account_id&lt;/b&gt;&lt;br&gt;+name&lt;br&gt;+description&lt;br&gt;+completed" style="align=left;strokeColor=none;fillColor=none;spacingLeft=4;fontSize=12;verticalAlign=top;resizable=0;rotatable=0;part=1;html=1;" parent="mFvnAFIRrcvvcW3mixJN-5" vertex="1"><mxGeometry y="50" width="160" height="70" as="geometry"/></mxCell><mxCell id="mFvnAFIRrcvvcW3mixJN-7" value="" style="fontSize=12;html=1;endArrow=ERzeroToMany;startArrow=ERmandOne;rounded=0;exitX=1;exitY=0.25;exitDx=0;exitDy=0;entryX=0;entryY=0.25;entryDx=0;entryDy=0;" parent="1" source="mFvnAFIRrcvvcW3mixJN-2" target="mFvnAFIRrcvvcW3mixJN-4" edge="1"><mxGeometry width="100" height="100" relative="1" as="geometry"><mxPoint x="180" y="400" as="sourcePoint"/><mxPoint x="280" y="300" as="targetPoint"/></mxGeometry></mxCell><mxCell id="mFvnAFIRrcvvcW3mixJN-9" value="" style="fontSize=12;html=1;endArrow=ERzeroToMany;startArrow=ERmandOne;rounded=0;exitX=0.5;exitY=1;exitDx=0;exitDy=0;entryX=0.5;entryY=0;entryDx=0;entryDy=0;edgeStyle=orthogonalEdgeStyle;curved=1;" parent="1" source="mFvnAFIRrcvvcW3mixJN-4" target="mFvnAFIRrcvvcW3mixJN-5" edge="1"><mxGeometry width="100" height="100" relative="1" as="geometry"><mxPoint x="380" y="350" as="sourcePoint"/><mxPoint x="480" y="250" as="targetPoint"/></mxGeometry></mxCell></root></mxGraphModel></diagram></mxfile>